<svg viewBox="0 0 720 370" xmlns="http://www.w3.org/2000/svg" font-family="-apple-system,BlinkMacSystemFont,'Segoe UI',Roboto,sans-serif">
  <defs>
    <marker id="c1" markerWidth="8" markerHeight="6" refX="7" refY="3" orient="auto"><path d="M0,0 L0,6 L8,3z" fill="#dc2626"/></marker>
    <marker id="c2" markerWidth="8" markerHeight="6" refX="7" refY="3" orient="auto"><path d="M0,0 L0,6 L8,3z" fill="#16a34a"/></marker>
  </defs>

  <rect width="720" height="370" fill="#f8fafc" rx="10"/>
  <text x="360" y="26" text-anchor="middle" font-size="13" font-weight="700" fill="#0f172a">Sidecar vs Ambient Mesh — 10,000 Pods / 100 Nodes</text>

  <!-- ─── LEFT: Sidecar ─── -->
  <rect x="20" y="40" width="330" height="270" fill="#fff1f2" stroke="#fca5a5" stroke-width="1.5" rx="8"/>
  <text x="185" y="62" text-anchor="middle" font-size="12" font-weight="700" fill="#991b1b">❌ Sidecar Model</text>
  <text x="185" y="78" text-anchor="middle" font-size="10" fill="#b91c1c">1 Envoy proxy per pod</text>

  <!-- Node with many sidecars -->
  <rect x="36" y="90" width="298" height="140" fill="#fff" stroke="#fca5a5" stroke-width="1" rx="6"/>
  <text x="185" y="107" text-anchor="middle" font-size="10" fill="#dc2626" font-weight="600">1 Node · many pods</text>

  <!-- pod+sidecar pairs -->
  <!-- row 1 -->
  <rect x="48" y="113" width="50" height="30" fill="#fee2e2" stroke="#fca5a5" stroke-width="1" rx="3"/>
  <text x="73" y="125" text-anchor="middle" font-size="7" fill="#991b1b">App</text>
  <text x="73" y="135" text-anchor="middle" font-size="7" fill="#dc2626">+Envoy</text>

  <rect x="108" y="113" width="50" height="30" fill="#fee2e2" stroke="#fca5a5" stroke-width="1" rx="3"/>
  <text x="133" y="125" text-anchor="middle" font-size="7" fill="#991b1b">App</text>
  <text x="133" y="135" text-anchor="middle" font-size="7" fill="#dc2626">+Envoy</text>

  <rect x="168" y="113" width="50" height="30" fill="#fee2e2" stroke="#fca5a5" stroke-width="1" rx="3"/>
  <text x="193" y="125" text-anchor="middle" font-size="7" fill="#991b1b">App</text>
  <text x="193" y="135" text-anchor="middle" font-size="7" fill="#dc2626">+Envoy</text>

  <rect x="228" y="113" width="50" height="30" fill="#fee2e2" stroke="#fca5a5" stroke-width="1" rx="3"/>
  <text x="253" y="125" text-anchor="middle" font-size="7" fill="#991b1b">App</text>
  <text x="253" y="135" text-anchor="middle" font-size="7" fill="#dc2626">+Envoy</text>

  <!-- row 2 -->
  <rect x="48" y="153" width="50" height="30" fill="#fee2e2" stroke="#fca5a5" stroke-width="1" rx="3"/>
  <text x="73" y="165" text-anchor="middle" font-size="7" fill="#991b1b">App</text>
  <text x="73" y="175" text-anchor="middle" font-size="7" fill="#dc2626">+Envoy</text>

  <rect x="108" y="153" width="50" height="30" fill="#fee2e2" stroke="#fca5a5" stroke-width="1" rx="3"/>
  <text x="133" y="165" text-anchor="middle" font-size="7" fill="#991b1b">App</text>
  <text x="133" y="175" text-anchor="middle" font-size="7" fill="#dc2626">+Envoy</text>

  <rect x="168" y="153" width="50" height="30" fill="#fee2e2" stroke="#fca5a5" stroke-width="1" rx="3"/>
  <text x="193" y="165" text-anchor="middle" font-size="7" fill="#991b1b">App</text>
  <text x="193" y="175" text-anchor="middle" font-size="7" fill="#dc2626">+Envoy</text>

  <rect x="228" y="153" width="50" height="30" fill="#fee2e2" stroke="#fca5a5" stroke-width="1" rx="3"/>
  <text x="253" y="165" text-anchor="middle" font-size="7" fill="#991b1b">App</text>
  <text x="253" y="175" text-anchor="middle" font-size="7" fill="#dc2626">+Envoy</text>

  <text x="185" y="210" text-anchor="middle" font-size="9" fill="#94a3b8">×100 pods per node × 100 nodes = 10,000 proxies</text>
  <text x="295" y="218" font-size="9" fill="#dc2626">…</text>

  <!-- Sidecar stats -->
  <rect x="36" y="238" width="298" height="62" fill="#fee2e2" stroke="#fca5a5" stroke-width="1" rx="5"/>
  <text x="80" y="258" font-size="22" font-weight="800" fill="#dc2626">10,000</text>
  <text x="80" y="276" font-size="10" fill="#991b1b">proxy instances</text>
  <text x="240" y="258" font-size="22" font-weight="800" fill="#dc2626">~1,000</text>
  <text x="240" y="276" font-size="10" fill="#991b1b">vCPU overhead</text>

  <!-- ─── RIGHT: Ambient ─── -->
  <rect x="370" y="40" width="330" height="270" fill="#f0fdf4" stroke="#86efac" stroke-width="1.5" rx="8"/>
  <text x="535" y="62" text-anchor="middle" font-size="12" font-weight="700" fill="#15803d">✅ Ambient Mesh</text>
  <text x="535" y="78" text-anchor="middle" font-size="10" fill="#16a34a">1 Ztunnel per node (DaemonSet)</text>

  <!-- Node with ztunnel -->
  <rect x="386" y="90" width="298" height="140" fill="#fff" stroke="#86efac" stroke-width="1" rx="6"/>
  <text x="535" y="107" text-anchor="middle" font-size="10" fill="#16a34a" font-weight="600">1 Node · many pods · 1 Ztunnel</text>

  <!-- pods (clean, no sidecar) -->
  <rect x="398" y="113" width="50" height="30" fill="#dbeafe" stroke="#93c5fd" stroke-width="1" rx="3"/>
  <text x="423" y="132" text-anchor="middle" font-size="8" fill="#1d4ed8">App</text>

  <rect x="458" y="113" width="50" height="30" fill="#dbeafe" stroke="#93c5fd" stroke-width="1" rx="3"/>
  <text x="483" y="132" text-anchor="middle" font-size="8" fill="#1d4ed8">App</text>

  <rect x="518" y="113" width="50" height="30" fill="#dbeafe" stroke="#93c5fd" stroke-width="1" rx="3"/>
  <text x="543" y="132" text-anchor="middle" font-size="8" fill="#1d4ed8">App</text>

  <rect x="578" y="113" width="50" height="30" fill="#dbeafe" stroke="#93c5fd" stroke-width="1" rx="3"/>
  <text x="603" y="132" text-anchor="middle" font-size="8" fill="#1d4ed8">App</text>

  <rect x="398" y="153" width="50" height="30" fill="#dbeafe" stroke="#93c5fd" stroke-width="1" rx="3"/>
  <text x="423" y="172" text-anchor="middle" font-size="8" fill="#1d4ed8">App</text>

  <rect x="458" y="153" width="50" height="30" fill="#dbeafe" stroke="#93c5fd" stroke-width="1" rx="3"/>
  <text x="483" y="172" text-anchor="middle" font-size="8" fill="#1d4ed8">App</text>

  <rect x="518" y="153" width="50" height="30" fill="#dbeafe" stroke="#93c5fd" stroke-width="1" rx="3"/>
  <text x="543" y="172" text-anchor="middle" font-size="8" fill="#1d4ed8">App</text>

  <rect x="578" y="153" width="50" height="30" fill="#dbeafe" stroke="#93c5fd" stroke-width="1" rx="3"/>
  <text x="603" y="172" text-anchor="middle" font-size="8" fill="#1d4ed8">App</text>

  <!-- shared ztunnel -->
  <rect x="398" y="195" width="230" height="24" fill="#dcfce7" stroke="#22c55e" stroke-width="2" rx="4"/>
  <text x="513" y="212" text-anchor="middle" font-size="10" font-weight="700" fill="#15803d">Ztunnel (shared by all pods on node)</text>

  <!-- Ambient stats -->
  <rect x="386" y="238" width="298" height="62" fill="#dcfce7" stroke="#86efac" stroke-width="1" rx="5"/>
  <text x="450" y="258" font-size="22" font-weight="800" fill="#15803d">100</text>
  <text x="430" y="276" font-size="10" fill="#166534">proxy instances</text>
  <text x="575" y="258" font-size="22" font-weight="800" fill="#15803d">20–74</text>
  <text x="570" y="276" font-size="10" fill="#166534">vCPU overhead</text>

  <!-- Savings banner -->
  <rect x="20" y="326" width="680" height="34" fill="#1d4ed8" rx="6"/>
  <text x="360" y="348" text-anchor="middle" font-size="12" font-weight="700" fill="#fff">⚡ Tiết kiệm ước tính: ~$430,000/năm · Memory giảm tới 90% · Không cần restart pod khi upgrade</text>
</svg>
